<?xml version='1.0' encoding='ascii'?>
<svg xmlns="http://www.w3.org/2000/svg" height="128" version="1.1" width="512">
    <g id="RenderLayer_LineSet" inkscape:groupmode="lineset" inkscape:label="RenderLayer_LineSet" xmlns:inkscape="http://www.inkscape.org/namespaces/inkscape">
        <g id="strokes" inkscape:groupmode="layer" inkscape:label="strokes" xmlns:inkscape="http://www.inkscape.org/namespaces/inkscape">
            <path d=" M 288.114, 23.998 290.124, 24.206 291.995, 24.552 293.693, 25.072 295.183, 25.800 296.430, 26.770 297.400, 28.017 298.128, 29.507 298.648, 31.205 298.994, 33.076 299.202, 35.086 299.306, 37.199 299.341, 39.382 299.341, 41.600 299.341, 43.818 299.306, 46.001 299.202, 48.114 298.994, 50.124 298.648, 51.995 298.128, 53.693 297.400, 55.183 296.430, 56.430 295.183, 57.400 293.693, 58.128 291.995, 58.648 290.124, 58.994 288.114, 59.202 286.001, 59.306 283.818, 59.341 281.600, 59.341 279.382, 59.341 277.199, 59.306 275.086, 59.202 273.076, 58.994 271.205, 58.648 269.507, 58.128 268.017, 57.400 266.770, 56.430 265.800, 55.183 265.072, 53.693 264.552, 51.995 264.206, 50.124 263.998, 48.114 263.894, 46.001 263.859, 43.818 263.859, 41.600 263.859, 39.382 263.894, 37.199 263.998, 35.086 264.206, 33.076 264.552, 31.205 265.072, 29.507 265.800, 28.017 266.770, 26.770 268.017, 25.800 269.507, 25.072 271.205, 24.552 273.076, 24.206 275.086, 23.998 277.199, 23.894 279.382, 23.859 281.600, 23.859 283.818, 23.859 286.001, 23.894 288.114, 23.998 290.124, 24.206 291.995, 24.552 293.693, 25.072 295.183, 25.800 296.430, 26.770 297.400, 28.017 298.128, 29.507 298.648, 31.205 298.994, 33.076 299.202, 35.086 299.306, 37.199 299.341, 39.382 299.341, 41.600 299.341, 43.818 299.306, 46.001 299.202, 48.114 298.994, 50.124 298.648, 51.995 298.128, 53.693 297.400, 55.183 296.430, 56.430 295.183, 57.400 293.693, 58.128 291.995, 58.648 290.124, 58.994 288.114, 59.202 286.001, 59.306 283.818, 59.341 281.600, 59.341 279.382, 59.341 277.199, 59.306 275.086, 59.202 273.076, 58.994 271.205, 58.648 269.507, 58.128 268.017, 57.400 266.770, 56.430 265.800, 55.183 265.072, 53.693 264.552, 51.995 264.206, 50.124 263.998, 48.114 263.894, 46.001 263.859, 43.818 263.859, 41.600 263.859, 39.382 263.894, 37.199 263.998, 35.086 264.206, 33.076 264.552, 31.205 265.072, 29.507 265.800, 28.017 266.770, 26.770 268.017, 25.800 269.507, 25.072 271.205, 24.552 273.076, 24.206 275.086, 23.998 277.199, 23.894 279.382, 23.859 281.600, 23.859 283.818, 23.859 286.001, 23.894 288.114, 23.998 290.124, 24.206 291.995, 24.552 293.693, 25.072 295.183, 25.800 296.430, 26.770 297.400, 28.017 298.128, 29.507 298.648, 31.205 298.994, 33.076 299.202, 35.086 299.306, 37.199 299.341, 39.382 299.341, 41.600 299.341, 43.818 299.306, 46.001 299.202, 48.114 298.994, 50.124 298.648, 51.995 298.128, 53.693 297.400, 55.183 296.430, 56.430 295.183, 57.400 293.693, 58.128 291.995, 58.648 290.124, 58.994 288.114, 59.202 286.001, 59.306 283.818, 59.341 281.600, 59.341 279.382, 59.341 277.199, 59.306 275.086, 59.202 273.076, 58.994 271.205, 58.648 269.507, 58.128 268.017, 57.400 266.770, 56.430 265.800, 55.183 265.072, 53.693 264.552, 51.995 264.206, 50.124 263.998, 48.114 263.894, 46.001 263.859, 43.818 263.859, 41.600 263.859, 39.382 263.894, 37.199 263.998, 35.086 264.206, 33.076 264.552, 31.205 265.072, 29.507 265.800, 28.017 266.770, 26.770 268.017, 25.800 269.507, 25.072 271.205, 24.552 273.076, 24.206 275.086, 23.998 277.199, 23.894 279.382, 23.859 281.600, 23.859 283.818, 23.859 286.001, 23.894 288.114, 23.998 " fill="none" stroke="rgb(255, 255, 255)" stroke-linecap="square" stroke-linejoin="round" stroke-opacity="0.5" stroke-width="1.5" />
            <path d=" M 240.114, 23.998 242.124, 24.206 243.995, 24.552 245.693, 25.072 247.183, 25.800 248.430, 26.770 249.400, 28.017 250.128, 29.507 250.648, 31.205 250.994, 33.076 251.202, 35.086 251.306, 37.199 251.341, 39.382 251.341, 41.600 251.341, 43.818 251.306, 46.001 251.202, 48.114 250.994, 50.124 250.648, 51.995 250.128, 53.693 249.400, 55.183 248.430, 56.430 247.183, 57.400 245.693, 58.128 243.995, 58.648 242.124, 58.994 240.114, 59.202 238.001, 59.306 235.818, 59.341 233.600, 59.341 231.382, 59.341 229.199, 59.306 227.086, 59.202 225.076, 58.994 223.205, 58.648 221.507, 58.128 220.017, 57.400 218.770, 56.430 217.800, 55.183 217.072, 53.693 216.552, 51.995 216.206, 50.124 215.998, 48.114 215.894, 46.001 215.859, 43.818 215.859, 41.600 215.859, 39.382 215.894, 37.199 215.998, 35.086 216.206, 33.076 216.552, 31.205 217.072, 29.507 217.800, 28.017 218.770, 26.770 220.017, 25.800 221.507, 25.072 223.205, 24.552 225.076, 24.206 227.086, 23.998 229.199, 23.894 231.382, 23.859 233.600, 23.859 235.818, 23.859 238.001, 23.894 240.114, 23.998 242.124, 24.206 243.995, 24.552 245.693, 25.072 247.183, 25.800 248.430, 26.770 249.400, 28.017 250.128, 29.507 250.648, 31.205 250.994, 33.076 251.202, 35.086 251.306, 37.199 251.341, 39.382 251.341, 41.600 251.341, 43.818 251.306, 46.001 251.202, 48.114 250.994, 50.124 250.648, 51.995 250.128, 53.693 249.400, 55.183 248.430, 56.430 247.183, 57.400 245.693, 58.128 243.995, 58.648 242.124, 58.994 240.114, 59.202 238.001, 59.306 235.818, 59.341 233.600, 59.341 231.382, 59.341 229.199, 59.306 227.086, 59.202 225.076, 58.994 223.205, 58.648 221.507, 58.128 220.017, 57.400 218.770, 56.430 217.800, 55.183 217.072, 53.693 216.552, 51.995 216.206, 50.124 215.998, 48.114 215.894, 46.001 215.859, 43.818 215.859, 41.600 215.859, 39.382 215.894, 37.199 215.998, 35.086 216.206, 33.076 216.552, 31.205 217.072, 29.507 217.800, 28.017 218.770, 26.770 220.017, 25.800 221.507, 25.072 223.205, 24.552 225.076, 24.206 227.086, 23.998 229.199, 23.894 231.382, 23.859 233.600, 23.859 235.818, 23.859 238.001, 23.894 240.114, 23.998 242.124, 24.206 243.995, 24.552 245.693, 25.072 247.183, 25.800 248.430, 26.770 249.400, 28.017 250.128, 29.507 250.648, 31.205 250.994, 33.076 251.202, 35.086 251.306, 37.199 251.341, 39.382 251.341, 41.600 251.341, 43.818 251.306, 46.001 251.202, 48.114 250.994, 50.124 250.648, 51.995 250.128, 53.693 249.400, 55.183 248.430, 56.430 247.183, 57.400 245.693, 58.128 243.995, 58.648 242.124, 58.994 240.114, 59.202 238.001, 59.306 235.818, 59.341 233.600, 59.341 231.382, 59.341 229.199, 59.306 227.086, 59.202 225.076, 58.994 223.205, 58.648 221.507, 58.128 220.017, 57.400 218.770, 56.430 217.800, 55.183 217.072, 53.693 216.552, 51.995 216.206, 50.124 215.998, 48.114 215.894, 46.001 215.859, 43.818 215.859, 41.600 215.859, 39.382 215.894, 37.199 215.998, 35.086 216.206, 33.076 216.552, 31.205 217.072, 29.507 217.800, 28.017 218.770, 26.770 220.017, 25.800 221.507, 25.072 223.205, 24.552 225.076, 24.206 227.086, 23.998 229.199, 23.894 231.382, 23.859 233.600, 23.859 235.818, 23.859 238.001, 23.894 240.114, 23.998 " fill="none" stroke="rgb(255, 255, 255)" stroke-linecap="square" stroke-linejoin="round" stroke-opacity="0.5" stroke-width="1.5" />
            <path d=" M 91.705, 22.443 95.614, 25.986 99.157, 29.895 102.300, 34.133 105.012, 38.658 107.268, 43.427 109.045, 48.394 110.327, 53.512 111.101, 58.731 111.360, 64.000 111.101, 69.269 110.327, 74.488 109.045, 79.606 107.268, 84.573 105.012, 89.342 102.300, 93.867 99.157, 98.105 95.614, 102.014 91.705, 105.557 87.468, 108.700 82.942, 111.412 78.173, 113.668 73.206, 115.445 68.088, 116.727 62.869, 117.501 57.600, 117.760 52.331, 117.501 47.112, 116.727 41.994, 115.445 37.027, 113.668 32.258, 111.412 27.733, 108.700 23.495, 105.557 19.586, 102.014 16.043, 98.105 12.900, 93.867 10.188, 89.342 7.932, 84.573 6.155, 79.606 4.873, 74.488 4.099, 69.269 3.840, 64.000 4.099, 58.731 4.873, 53.512 6.155, 48.394 7.932, 43.427 10.188, 38.658 12.900, 34.133 16.043, 29.895 19.586, 25.986 23.495, 22.443 27.733, 19.300 32.258, 16.588 37.027, 14.332 41.994, 12.555 47.112, 11.273 52.331, 10.499 57.600, 10.240 62.870, 10.499 68.088, 11.273 73.206, 12.555 78.173, 14.332 82.942, 16.588 87.468, 19.300 91.705, 22.443 95.614, 25.986 99.157, 29.895 102.300, 34.133 105.012, 38.658 107.268, 43.427 109.045, 48.394 110.327, 53.512 111.101, 58.731 111.360, 64.000 111.101, 69.269 110.327, 74.488 109.045, 79.606 107.268, 84.573 105.012, 89.342 102.300, 93.867 99.157, 98.105 95.614, 102.014 91.705, 105.557 87.468, 108.700 82.942, 111.412 78.173, 113.668 73.206, 115.445 68.088, 116.727 62.869, 117.501 57.600, 117.760 52.331, 117.501 47.112, 116.727 41.994, 115.445 37.027, 113.668 32.258, 111.412 27.733, 108.700 23.495, 105.557 19.586, 102.014 16.043, 98.105 12.900, 93.867 10.188, 89.342 7.932, 84.573 6.155, 79.606 4.873, 74.488 4.099, 69.269 3.840, 64.000 4.099, 58.731 4.873, 53.512 6.155, 48.394 7.932, 43.427 10.188, 38.658 12.900, 34.133 16.043, 29.895 19.586, 25.986 23.495, 22.443 27.733, 19.300 32.258, 16.588 37.027, 14.332 41.994, 12.555 47.112, 11.273 52.331, 10.499 57.600, 10.240 62.870, 10.499 68.088, 11.273 73.206, 12.555 78.173, 14.332 82.942, 16.588 87.468, 19.300 91.705, 22.443 95.614, 25.986 99.157, 29.895 102.300, 34.133 105.012, 38.658 107.268, 43.427 109.045, 48.394 110.327, 53.512 111.101, 58.731 111.360, 64.000 111.101, 69.269 110.327, 74.488 109.045, 79.606 107.268, 84.573 105.012, 89.342 102.300, 93.867 99.157, 98.105 95.614, 102.014 91.705, 105.557 87.468, 108.700 82.942, 111.412 78.173, 113.668 73.206, 115.445 68.088, 116.727 62.869, 117.501 57.600, 117.760 52.331, 117.501 47.112, 116.727 41.994, 115.445 37.027, 113.668 32.258, 111.412 27.733, 108.700 23.495, 105.557 19.586, 102.014 16.043, 98.105 12.900, 93.867 10.188, 89.342 7.932, 84.573 6.155, 79.606 4.873, 74.488 4.099, 69.269 3.840, 64.000 4.099, 58.731 4.873, 53.512 6.155, 48.394 7.932, 43.427 10.188, 38.658 12.900, 34.133 16.043, 29.895 19.586, 25.986 23.495, 22.443 27.733, 19.300 32.258, 16.588 37.027, 14.332 41.994, 12.555 47.112, 11.273 52.331, 10.499 57.600, 10.240 62.870, 10.499 68.088, 11.273 73.206, 12.555 78.173, 14.332 82.942, 16.588 87.468, 19.300 91.705, 22.443 " fill="none" stroke="rgb(255, 255, 255)" stroke-linecap="square" stroke-linejoin="round" stroke-opacity="0.5" stroke-width="1.5" />
            <path d=" M 259.644, 83.449 255.936, 83.449 255.936, 87.922 251.909, 87.922 251.909, 91.325 255.936, 91.325 255.936, 95.928 259.644, 95.928 259.644, 91.325 263.659, 91.325 263.659, 87.922 259.644, 87.922 259.644, 83.449 255.936, 83.449 255.936, 87.922 251.909, 87.922 251.909, 91.325 255.936, 91.325 255.936, 95.928 259.644, 95.928 259.644, 91.325 263.659, 91.325 263.659, 87.922 259.644, 87.922 259.644, 83.449 255.936, 83.449 255.936, 87.922 251.909, 87.922 251.909, 91.325 255.936, 91.325 255.936, 95.928 259.644, 95.928 259.644, 91.325 263.659, 91.325 263.659, 87.922 259.644, 87.922 259.644, 83.449 " fill="none" stroke="rgb(255, 255, 255)" stroke-linecap="square" stroke-linejoin="round" stroke-opacity="0.5" stroke-width="1.5" />
            <path d=" M 211.644, 83.449 207.936, 83.449 207.936, 87.922 203.909, 87.922 203.909, 91.325 207.936, 91.325 207.936, 95.928 211.644, 95.928 211.644, 91.325 215.659, 91.325 215.659, 87.922 211.644, 87.922 211.644, 83.449 207.936, 83.449 207.936, 87.922 203.909, 87.922 203.909, 91.325 207.936, 91.325 207.936, 95.928 211.644, 95.928 211.644, 91.325 215.659, 91.325 215.659, 87.922 211.644, 87.922 211.644, 83.449 207.936, 83.449 207.936, 87.922 203.909, 87.922 203.909, 91.325 207.936, 91.325 207.936, 95.928 211.644, 95.928 211.644, 91.325 215.659, 91.325 215.659, 87.922 211.644, 87.922 211.644, 83.449 " fill="none" stroke="rgb(255, 255, 255)" stroke-linecap="square" stroke-linejoin="round" stroke-opacity="0.5" stroke-width="1.5" />
            <path d=" M 163.644, 83.449 159.936, 83.449 159.936, 87.922 155.909, 87.922 155.909, 91.325 159.936, 91.325 159.936, 95.928 163.644, 95.928 163.644, 91.325 167.659, 91.325 167.659, 87.922 163.644, 87.922 163.644, 83.449 159.936, 83.449 159.936, 87.922 155.909, 87.922 155.909, 91.325 159.936, 91.325 159.936, 95.928 163.644, 95.928 163.644, 91.325 167.659, 91.325 167.659, 87.922 163.644, 87.922 163.644, 83.449 159.936, 83.449 159.936, 87.922 155.909, 87.922 155.909, 91.325 159.936, 91.325 159.936, 95.928 163.644, 95.928 163.644, 91.325 167.659, 91.325 167.659, 87.922 163.644, 87.922 163.644, 83.449 " fill="none" stroke="rgb(255, 255, 255)" stroke-linecap="square" stroke-linejoin="round" stroke-opacity="0.5" stroke-width="1.5" />
            <path d=" M 303.964, 100.267 302.842, 101.780 301.576, 103.176 300.180, 104.442 298.667, 105.564 297.051, 106.533 295.348, 107.338 293.573, 107.973 291.746, 108.431 289.882, 108.708 288.000, 108.800 278.000, 108.800 268.000, 108.800 258.000, 108.800 248.000, 108.800 238.000, 108.800 228.000, 108.800 218.000, 108.800 208.000, 108.800 198.000, 108.800 188.000, 108.800 178.000, 108.800 168.000, 108.800 158.000, 108.800 148.000, 108.800 138.000, 108.800 131.200, 108.800 129.318, 108.708 127.454, 108.431 125.627, 107.973 123.852, 107.338 122.149, 106.533 120.533, 105.564 119.020, 104.442 117.624, 103.176 116.358, 101.780 115.236, 100.267 114.267, 98.651 113.462, 96.948 112.827, 95.173 112.369, 93.346 112.092, 91.482 112.000, 89.600 112.092, 87.718 112.369, 85.854 112.827, 84.027 113.462, 82.252 114.267, 80.549 115.236, 78.933 116.358, 77.420 117.624, 76.024 119.020, 74.758 120.533, 73.636 122.149, 72.667 123.852, 71.862 125.627, 71.227 127.454, 70.769 129.318, 70.492 131.200, 70.400 141.200, 70.400 151.200, 70.400 161.200, 70.400 171.200, 70.400 181.200, 70.400 191.200, 70.400 201.200, 70.400 211.200, 70.400 221.200, 70.400 231.200, 70.400 241.200, 70.400 251.200, 70.400 261.200, 70.400 271.200, 70.400 281.200, 70.400 288.000, 70.400 289.882, 70.492 291.746, 70.769 293.573, 71.227 295.348, 71.861 297.051, 72.667 298.667, 73.636 300.180, 74.758 301.576, 76.024 302.842, 77.420 303.964, 78.933 304.933, 80.549 305.738, 82.252 306.373, 84.027 306.831, 85.854 307.108, 87.718 307.200, 89.600 307.108, 91.482 306.831, 93.346 306.373, 95.173 305.738, 96.948 304.933, 98.651 303.964, 100.267 302.842, 101.780 301.576, 103.176 300.180, 104.442 298.667, 105.564 297.051, 106.533 295.348, 107.338 293.573, 107.973 291.746, 108.431 289.882, 108.708 288.000, 108.800 278.000, 108.800 268.000, 108.800 258.000, 108.800 248.000, 108.800 238.000, 108.800 228.000, 108.800 218.000, 108.800 208.000, 108.800 198.000, 108.800 188.000, 108.800 178.000, 108.800 168.000, 108.800 158.000, 108.800 148.000, 108.800 138.000, 108.800 131.200, 108.800 129.318, 108.708 127.454, 108.431 125.627, 107.973 123.852, 107.338 122.149, 106.533 120.533, 105.564 119.020, 104.442 117.624, 103.176 116.358, 101.780 115.236, 100.267 114.267, 98.651 113.462, 96.948 112.827, 95.173 112.369, 93.346 112.092, 91.482 112.000, 89.600 112.092, 87.718 112.369, 85.854 112.827, 84.027 113.462, 82.252 114.267, 80.549 115.236, 78.933 116.358, 77.420 117.624, 76.024 119.020, 74.758 120.533, 73.636 122.149, 72.667 123.852, 71.862 125.627, 71.227 127.454, 70.769 129.318, 70.492 131.200, 70.400 141.200, 70.400 151.200, 70.400 161.200, 70.400 171.200, 70.400 181.200, 70.400 191.200, 70.400 201.200, 70.400 211.200, 70.400 221.200, 70.400 231.200, 70.400 241.200, 70.400 251.200, 70.400 261.200, 70.400 271.200, 70.400 281.200, 70.400 288.000, 70.400 289.882, 70.492 291.746, 70.769 293.573, 71.227 295.348, 71.861 297.051, 72.667 298.667, 73.636 300.180, 74.758 301.576, 76.024 302.842, 77.420 303.964, 78.933 304.933, 80.549 305.738, 82.252 306.373, 84.027 306.831, 85.854 307.108, 87.718 307.200, 89.600 307.108, 91.482 306.831, 93.346 306.373, 95.173 305.738, 96.948 304.933, 98.651 303.964, 100.267 302.842, 101.780 301.576, 103.176 300.180, 104.442 298.667, 105.564 297.051, 106.533 295.348, 107.338 293.573, 107.973 291.746, 108.431 289.882, 108.708 288.000, 108.800 278.000, 108.800 268.000, 108.800 258.000, 108.800 248.000, 108.800 238.000, 108.800 228.000, 108.800 218.000, 108.800 208.000, 108.800 198.000, 108.800 188.000, 108.800 178.000, 108.800 168.000, 108.800 158.000, 108.800 148.000, 108.800 138.000, 108.800 131.200, 108.800 129.318, 108.708 127.454, 108.431 125.627, 107.973 123.852, 107.338 122.149, 106.533 120.533, 105.564 119.020, 104.442 117.624, 103.176 116.358, 101.780 115.236, 100.267 114.267, 98.651 113.462, 96.948 112.827, 95.173 112.369, 93.346 112.092, 91.482 112.000, 89.600 112.092, 87.718 112.369, 85.854 112.827, 84.027 113.462, 82.252 114.267, 80.549 115.236, 78.933 116.358, 77.420 117.624, 76.024 119.020, 74.758 120.533, 73.636 122.149, 72.667 123.852, 71.862 125.627, 71.227 127.454, 70.769 129.318, 70.492 131.200, 70.400 141.200, 70.400 151.200, 70.400 161.200, 70.400 171.200, 70.400 181.200, 70.400 191.200, 70.400 201.200, 70.400 211.200, 70.400 221.200, 70.400 231.200, 70.400 241.200, 70.400 251.200, 70.400 261.200, 70.400 271.200, 70.400 281.200, 70.400 288.000, 70.400 289.882, 70.492 291.746, 70.769 293.573, 71.227 295.348, 71.861 297.051, 72.667 298.667, 73.636 300.180, 74.758 301.576, 76.024 302.842, 77.420 303.964, 78.933 304.933, 80.549 305.738, 82.252 306.373, 84.027 306.831, 85.854 307.108, 87.718 307.200, 89.600 307.108, 91.482 306.831, 93.346 306.373, 95.173 305.738, 96.948 304.933, 98.651 303.964, 100.267 " fill="none" stroke="rgb(255, 255, 255)" stroke-linecap="square" stroke-linejoin="round" stroke-opacity="0.5" stroke-width="1.5" />
            <path d=" M 197.780, 26.758 199.176, 28.024 200.442, 29.420 201.564, 30.933 202.533, 32.549 203.339, 34.253 203.973, 36.027 204.431, 37.854 204.708, 39.718 204.800, 41.600 204.708, 43.482 204.431, 45.346 203.973, 47.173 203.339, 48.948 202.533, 50.651 201.564, 52.267 200.442, 53.780 199.176, 55.176 197.780, 56.442 196.267, 57.564 194.651, 58.533 192.948, 59.338 191.173, 59.973 189.346, 60.431 187.482, 60.708 185.600, 60.800 183.718, 60.708 181.854, 60.431 180.027, 59.973 178.253, 59.338 176.549, 58.533 174.933, 57.564 173.420, 56.442 172.024, 55.176 170.758, 53.780 169.636, 52.267 168.667, 50.651 167.862, 48.948 167.227, 47.173 166.769, 45.346 166.492, 43.482 166.400, 41.600 166.492, 39.718 166.769, 37.854 167.227, 36.027 167.862, 34.252 168.667, 32.549 169.636, 30.933 170.758, 29.420 172.024, 28.024 173.420, 26.758 174.933, 25.636 176.549, 24.667 178.252, 23.862 180.027, 23.227 181.854, 22.769 183.718, 22.492 185.600, 22.400 187.482, 22.492 189.346, 22.769 191.174, 23.227 192.948, 23.862 194.651, 24.667 196.267, 25.636 197.780, 26.758 199.176, 28.024 200.442, 29.420 201.564, 30.933 202.533, 32.549 203.339, 34.253 203.973, 36.027 204.431, 37.854 204.708, 39.718 204.800, 41.600 204.708, 43.482 204.431, 45.346 203.973, 47.173 203.339, 48.948 202.533, 50.651 201.564, 52.267 200.442, 53.780 199.176, 55.176 197.780, 56.442 196.267, 57.564 194.651, 58.533 192.948, 59.338 191.173, 59.973 189.346, 60.431 187.482, 60.708 185.600, 60.800 183.718, 60.708 181.854, 60.431 180.027, 59.973 178.253, 59.338 176.549, 58.533 174.933, 57.564 173.420, 56.442 172.024, 55.176 170.758, 53.780 169.636, 52.267 168.667, 50.651 167.862, 48.948 167.227, 47.173 166.769, 45.346 166.492, 43.482 166.400, 41.600 166.492, 39.718 166.769, 37.854 167.227, 36.027 167.862, 34.252 168.667, 32.549 169.636, 30.933 170.758, 29.420 172.024, 28.024 173.420, 26.758 174.933, 25.636 176.549, 24.667 178.252, 23.862 180.027, 23.227 181.854, 22.769 183.718, 22.492 185.600, 22.400 187.482, 22.492 189.346, 22.769 191.174, 23.227 192.948, 23.862 194.651, 24.667 196.267, 25.636 197.780, 26.758 199.176, 28.024 200.442, 29.420 201.564, 30.933 202.533, 32.549 203.339, 34.253 203.973, 36.027 204.431, 37.854 204.708, 39.718 204.800, 41.600 204.708, 43.482 204.431, 45.346 203.973, 47.173 203.339, 48.948 202.533, 50.651 201.564, 52.267 200.442, 53.780 199.176, 55.176 197.780, 56.442 196.267, 57.564 194.651, 58.533 192.948, 59.338 191.173, 59.973 189.346, 60.431 187.482, 60.708 185.600, 60.800 183.718, 60.708 181.854, 60.431 180.027, 59.973 178.253, 59.338 176.549, 58.533 174.933, 57.564 173.420, 56.442 172.024, 55.176 170.758, 53.780 169.636, 52.267 168.667, 50.651 167.862, 48.948 167.227, 47.173 166.769, 45.346 166.492, 43.482 166.400, 41.600 166.492, 39.718 166.769, 37.854 167.227, 36.027 167.862, 34.252 168.667, 32.549 169.636, 30.933 170.758, 29.420 172.024, 28.024 173.420, 26.758 174.933, 25.636 176.549, 24.667 178.252, 23.862 180.027, 23.227 181.854, 22.769 183.718, 22.492 185.600, 22.400 187.482, 22.492 189.346, 22.769 191.174, 23.227 192.948, 23.862 194.651, 24.667 196.267, 25.636 197.780, 26.758 " fill="none" stroke="rgb(255, 255, 255)" stroke-linecap="square" stroke-linejoin="round" stroke-opacity="0.5" stroke-width="1.5" />
            <path d=" M 149.780, 26.758 151.176, 28.024 152.442, 29.420 153.564, 30.933 154.533, 32.549 155.339, 34.253 155.973, 36.027 156.431, 37.854 156.708, 39.718 156.800, 41.600 156.708, 43.482 156.431, 45.346 155.973, 47.173 155.339, 48.948 154.533, 50.651 153.564, 52.267 152.442, 53.780 151.176, 55.176 149.780, 56.442 148.267, 57.564 146.651, 58.533 144.948, 59.338 143.173, 59.973 141.346, 60.431 139.482, 60.708 137.600, 60.800 135.718, 60.708 133.854, 60.431 132.027, 59.973 130.253, 59.338 128.549, 58.533 126.933, 57.564 125.420, 56.442 124.024, 55.176 122.758, 53.780 121.636, 52.267 120.667, 50.651 119.862, 48.948 119.227, 47.173 118.769, 45.346 118.492, 43.482 118.400, 41.600 118.492, 39.718 118.769, 37.854 119.227, 36.027 119.862, 34.252 120.667, 32.549 121.636, 30.933 122.758, 29.420 124.024, 28.024 125.420, 26.758 126.933, 25.636 128.549, 24.667 130.252, 23.862 132.027, 23.227 133.854, 22.769 135.718, 22.492 137.600, 22.400 139.482, 22.492 141.346, 22.769 143.174, 23.227 144.948, 23.862 146.651, 24.667 148.267, 25.636 149.780, 26.758 151.176, 28.024 152.442, 29.420 153.564, 30.933 154.533, 32.549 155.339, 34.253 155.973, 36.027 156.431, 37.854 156.708, 39.718 156.800, 41.600 156.708, 43.482 156.431, 45.346 155.973, 47.173 155.339, 48.948 154.533, 50.651 153.564, 52.267 152.442, 53.780 151.176, 55.176 149.780, 56.442 148.267, 57.564 146.651, 58.533 144.948, 59.338 143.173, 59.973 141.346, 60.431 139.482, 60.708 137.600, 60.800 135.718, 60.708 133.854, 60.431 132.027, 59.973 130.253, 59.338 128.549, 58.533 126.933, 57.564 125.420, 56.442 124.024, 55.176 122.758, 53.780 121.636, 52.267 120.667, 50.651 119.862, 48.948 119.227, 47.173 118.769, 45.346 118.492, 43.482 118.400, 41.600 118.492, 39.718 118.769, 37.854 119.227, 36.027 119.862, 34.252 120.667, 32.549 121.636, 30.933 122.758, 29.420 124.024, 28.024 125.420, 26.758 126.933, 25.636 128.549, 24.667 130.252, 23.862 132.027, 23.227 133.854, 22.769 135.718, 22.492 137.600, 22.400 139.482, 22.492 141.346, 22.769 143.174, 23.227 144.948, 23.862 146.651, 24.667 148.267, 25.636 149.780, 26.758 151.176, 28.024 152.442, 29.420 153.564, 30.933 154.533, 32.549 155.339, 34.253 155.973, 36.027 156.431, 37.854 156.708, 39.718 156.800, 41.600 156.708, 43.482 156.431, 45.346 155.973, 47.173 155.339, 48.948 154.533, 50.651 153.564, 52.267 152.442, 53.780 151.176, 55.176 149.780, 56.442 148.267, 57.564 146.651, 58.533 144.948, 59.338 143.173, 59.973 141.346, 60.431 139.482, 60.708 137.600, 60.800 135.718, 60.708 133.854, 60.431 132.027, 59.973 130.253, 59.338 128.549, 58.533 126.933, 57.564 125.420, 56.442 124.024, 55.176 122.758, 53.780 121.636, 52.267 120.667, 50.651 119.862, 48.948 119.227, 47.173 118.769, 45.346 118.492, 43.482 118.400, 41.600 118.492, 39.718 118.769, 37.854 119.227, 36.027 119.862, 34.252 120.667, 32.549 121.636, 30.933 122.758, 29.420 124.024, 28.024 125.420, 26.758 126.933, 25.636 128.549, 24.667 130.252, 23.862 132.027, 23.227 133.854, 22.769 135.718, 22.492 137.600, 22.400 139.482, 22.492 141.346, 22.769 143.174, 23.227 144.948, 23.862 146.651, 24.667 148.267, 25.636 149.780, 26.758 " fill="none" stroke="rgb(255, 255, 255)" stroke-linecap="square" stroke-linejoin="round" stroke-opacity="0.5" stroke-width="1.5" />
            <path d=" M 87.600, 80.000 85.600, 80.000 83.600, 80.000 81.600, 80.000 79.600, 80.000 77.725, 80.125 76.100, 80.500 74.850, 81.250 74.100, 82.500 73.725, 84.125 73.600, 86.000 73.600, 88.000 73.600, 90.000 73.600, 92.000 73.600, 94.000 73.600, 96.000 73.600, 98.000 73.600, 100.000 73.600, 102.000 73.600, 104.000 73.600, 106.000 73.475, 107.875 73.100, 109.500 72.350, 110.750 71.100, 111.500 69.475, 111.875 67.600, 112.000 65.600, 112.000 63.600, 112.000 61.600, 112.000 59.600, 112.000 57.600, 112.000 55.600, 112.000 53.600, 112.000 51.600, 112.000 49.600, 112.000 47.600, 112.000 45.725, 111.875 44.100, 111.500 42.850, 110.750 42.100, 109.500 41.725, 107.875 41.600, 106.000 41.600, 104.000 41.600, 102.000 41.600, 100.000 41.600, 98.000 41.600, 96.000 41.600, 94.000 41.600, 92.000 41.600, 90.000 41.600, 88.000 41.600, 86.000 41.475, 84.125 41.100, 82.500 40.350, 81.250 39.100, 80.500 37.475, 80.125 35.600, 80.000 33.600, 80.000 31.600, 80.000 29.600, 80.000 27.600, 80.000 25.600, 80.000 23.600, 80.000 21.600, 80.000 19.600, 80.000 17.600, 80.000 15.600, 80.000 13.725, 79.875 12.100, 79.500 10.850, 78.750 10.100, 77.500 9.725, 75.875 9.600, 74.000 9.600, 72.000 9.600, 70.000 9.600, 68.000 9.600, 66.000 9.600, 64.000 9.600, 62.000 9.600, 60.000 9.600, 58.000 9.600, 56.000 9.600, 54.000 9.725, 52.125 10.100, 50.500 10.850, 49.250 12.100, 48.500 13.725, 48.125 15.600, 48.000 17.600, 48.000 19.600, 48.000 21.600, 48.000 23.600, 48.000 25.600, 48.000 27.600, 48.000 29.600, 48.000 31.600, 48.000 33.600, 48.000 35.600, 48.000 37.475, 47.875 39.100, 47.500 40.350, 46.750 41.100, 45.500 41.475, 43.875 41.600, 42.000 41.600, 40.000 41.600, 38.000 41.600, 36.000 41.600, 34.000 41.600, 32.000 41.600, 30.000 41.600, 28.000 41.600, 26.000 41.600, 24.000 41.600, 22.000 41.725, 20.125 42.100, 18.500 42.850, 17.250 44.100, 16.500 45.725, 16.125 47.600, 16.000 49.600, 16.000 51.600, 16.000 53.600, 16.000 55.600, 16.000 57.600, 16.000 59.600, 16.000 61.600, 16.000 63.600, 16.000 65.600, 16.000 67.600, 16.000 69.475, 16.125 71.100, 16.500 72.350, 17.250 73.100, 18.500 73.475, 20.125 73.600, 22.000 73.600, 24.000 73.600, 26.000 73.600, 28.000 73.600, 30.000 73.600, 32.000 73.600, 34.000 73.600, 36.000 73.600, 38.000 73.600, 40.000 73.600, 42.000 73.725, 43.875 74.100, 45.500 74.850, 46.750 76.100, 47.500 77.725, 47.875 79.600, 48.000 81.600, 48.000 83.600, 48.000 85.600, 48.000 87.600, 48.000 89.600, 48.000 91.600, 48.000 93.600, 48.000 95.600, 48.000 97.600, 48.000 99.600, 48.000 101.475, 48.125 103.100, 48.500 104.350, 49.250 105.100, 50.500 105.475, 52.125 105.600, 54.000 105.600, 56.000 105.600, 58.000 105.600, 60.000 105.600, 62.000 105.600, 64.000 105.600, 66.000 105.600, 68.000 105.600, 70.000 105.600, 72.000 105.600, 74.000 105.475, 75.875 105.100, 77.500 104.350, 78.750 103.100, 79.500 101.475, 79.875 99.600, 80.000 97.600, 80.000 95.600, 80.000 93.600, 80.000 91.600, 80.000 89.600, 80.000 87.600, 80.000 85.600, 80.000 83.600, 80.000 81.600, 80.000 79.600, 80.000 77.725, 80.125 76.100, 80.500 74.850, 81.250 74.100, 82.500 73.725, 84.125 73.600, 86.000 73.600, 88.000 73.600, 90.000 73.600, 92.000 73.600, 94.000 73.600, 96.000 73.600, 98.000 73.600, 100.000 73.600, 102.000 73.600, 104.000 73.600, 106.000 73.475, 107.875 73.100, 109.500 72.350, 110.750 71.100, 111.500 69.475, 111.875 67.600, 112.000 65.600, 112.000 63.600, 112.000 61.600, 112.000 59.600, 112.000 57.600, 112.000 55.600, 112.000 53.600, 112.000 51.600, 112.000 49.600, 112.000 47.600, 112.000 45.725, 111.875 44.100, 111.500 42.850, 110.750 42.100, 109.500 41.725, 107.875 41.600, 106.000 41.600, 104.000 41.600, 102.000 41.600, 100.000 41.600, 98.000 41.600, 96.000 41.600, 94.000 41.600, 92.000 41.600, 90.000 41.600, 88.000 41.600, 86.000 41.475, 84.125 41.100, 82.500 40.350, 81.250 39.100, 80.500 37.475, 80.125 35.600, 80.000 33.600, 80.000 31.600, 80.000 29.600, 80.000 27.600, 80.000 25.600, 80.000 23.600, 80.000 21.600, 80.000 19.600, 80.000 17.600, 80.000 15.600, 80.000 13.725, 79.875 12.100, 79.500 10.850, 78.750 10.100, 77.500 9.725, 75.875 9.600, 74.000 9.600, 72.000 9.600, 70.000 9.600, 68.000 9.600, 66.000 9.600, 64.000 9.600, 62.000 9.600, 60.000 9.600, 58.000 9.600, 56.000 9.600, 54.000 9.725, 52.125 10.100, 50.500 10.850, 49.250 12.100, 48.500 13.725, 48.125 15.600, 48.000 17.600, 48.000 19.600, 48.000 21.600, 48.000 23.600, 48.000 25.600, 48.000 27.600, 48.000 29.600, 48.000 31.600, 48.000 33.600, 48.000 35.600, 48.000 37.475, 47.875 39.100, 47.500 40.350, 46.750 41.100, 45.500 41.475, 43.875 41.600, 42.000 41.600, 40.000 41.600, 38.000 41.600, 36.000 41.600, 34.000 41.600, 32.000 41.600, 30.000 41.600, 28.000 41.600, 26.000 41.600, 24.000 41.600, 22.000 41.725, 20.125 42.100, 18.500 42.850, 17.250 44.100, 16.500 45.725, 16.125 47.600, 16.000 49.600, 16.000 51.600, 16.000 53.600, 16.000 55.600, 16.000 57.600, 16.000 59.600, 16.000 61.600, 16.000 63.600, 16.000 65.600, 16.000 67.600, 16.000 69.475, 16.125 71.100, 16.500 72.350, 17.250 73.100, 18.500 73.475, 20.125 73.600, 22.000 73.600, 24.000 73.600, 26.000 73.600, 28.000 73.600, 30.000 73.600, 32.000 73.600, 34.000 73.600, 36.000 73.600, 38.000 73.600, 40.000 73.600, 42.000 73.725, 43.875 74.100, 45.500 74.850, 46.750 76.100, 47.500 77.725, 47.875 79.600, 48.000 81.600, 48.000 83.600, 48.000 85.600, 48.000 87.600, 48.000 89.600, 48.000 91.600, 48.000 93.600, 48.000 95.600, 48.000 97.600, 48.000 99.600, 48.000 101.475, 48.125 103.100, 48.500 104.350, 49.250 105.100, 50.500 105.475, 52.125 105.600, 54.000 105.600, 56.000 105.600, 58.000 105.600, 60.000 105.600, 62.000 105.600, 64.000 105.600, 66.000 105.600, 68.000 105.600, 70.000 105.600, 72.000 105.600, 74.000 105.475, 75.875 105.100, 77.500 104.350, 78.750 103.100, 79.500 101.475, 79.875 99.600, 80.000 97.600, 80.000 95.600, 80.000 93.600, 80.000 91.600, 80.000 89.600, 80.000 87.600, 80.000 85.600, 80.000 83.600, 80.000 81.600, 80.000 79.600, 80.000 77.725, 80.125 76.100, 80.500 74.850, 81.250 74.100, 82.500 73.725, 84.125 73.600, 86.000 73.600, 88.000 73.600, 90.000 73.600, 92.000 73.600, 94.000 73.600, 96.000 73.600, 98.000 73.600, 100.000 73.600, 102.000 73.600, 104.000 73.600, 106.000 73.475, 107.875 73.100, 109.500 72.350, 110.750 71.100, 111.500 69.475, 111.875 67.600, 112.000 65.600, 112.000 63.600, 112.000 61.600, 112.000 59.600, 112.000 57.600, 112.000 55.600, 112.000 53.600, 112.000 51.600, 112.000 49.600, 112.000 47.600, 112.000 45.725, 111.875 44.100, 111.500 42.850, 110.750 42.100, 109.500 41.725, 107.875 41.600, 106.000 41.600, 104.000 41.600, 102.000 41.600, 100.000 41.600, 98.000 41.600, 96.000 41.600, 94.000 41.600, 92.000 41.600, 90.000 41.600, 88.000 41.600, 86.000 41.475, 84.125 41.100, 82.500 40.350, 81.250 39.100, 80.500 37.475, 80.125 35.600, 80.000 33.600, 80.000 31.600, 80.000 29.600, 80.000 27.600, 80.000 25.600, 80.000 23.600, 80.000 21.600, 80.000 19.600, 80.000 17.600, 80.000 15.600, 80.000 13.725, 79.875 12.100, 79.500 10.850, 78.750 10.100, 77.500 9.725, 75.875 9.600, 74.000 9.600, 72.000 9.600, 70.000 9.600, 68.000 9.600, 66.000 9.600, 64.000 9.600, 62.000 9.600, 60.000 9.600, 58.000 9.600, 56.000 9.600, 54.000 9.725, 52.125 10.100, 50.500 10.850, 49.250 12.100, 48.500 13.725, 48.125 15.600, 48.000 17.600, 48.000 19.600, 48.000 21.600, 48.000 23.600, 48.000 25.600, 48.000 27.600, 48.000 29.600, 48.000 31.600, 48.000 33.600, 48.000 35.600, 48.000 37.475, 47.875 39.100, 47.500 40.350, 46.750 41.100, 45.500 41.475, 43.875 41.600, 42.000 41.600, 40.000 41.600, 38.000 41.600, 36.000 41.600, 34.000 41.600, 32.000 41.600, 30.000 41.600, 28.000 41.600, 26.000 41.600, 24.000 41.600, 22.000 41.725, 20.125 42.100, 18.500 42.850, 17.250 44.100, 16.500 45.725, 16.125 47.600, 16.000 49.600, 16.000 51.600, 16.000 53.600, 16.000 55.600, 16.000 57.600, 16.000 59.600, 16.000 61.600, 16.000 63.600, 16.000 65.600, 16.000 67.600, 16.000 69.475, 16.125 71.100, 16.500 72.350, 17.250 73.100, 18.500 73.475, 20.125 73.600, 22.000 73.600, 24.000 73.600, 26.000 73.600, 28.000 73.600, 30.000 73.600, 32.000 73.600, 34.000 73.600, 36.000 73.600, 38.000 73.600, 40.000 73.600, 42.000 73.725, 43.875 74.100, 45.500 74.850, 46.750 76.100, 47.500 77.725, 47.875 79.600, 48.000 81.600, 48.000 83.600, 48.000 85.600, 48.000 87.600, 48.000 89.600, 48.000 91.600, 48.000 93.600, 48.000 95.600, 48.000 97.600, 48.000 99.600, 48.000 101.475, 48.125 103.100, 48.500 104.350, 49.250 105.100, 50.500 105.475, 52.125 105.600, 54.000 105.600, 56.000 105.600, 58.000 105.600, 60.000 105.600, 62.000 105.600, 64.000 105.600, 66.000 105.600, 68.000 105.600, 70.000 105.600, 72.000 105.600, 74.000 105.475, 75.875 105.100, 77.500 104.350, 78.750 103.100, 79.500 101.475, 79.875 99.600, 80.000 97.600, 80.000 95.600, 80.000 93.600, 80.000 91.600, 80.000 89.600, 80.000 87.600, 80.000 " fill="none" stroke="rgb(255, 255, 255)" stroke-linecap="square" stroke-linejoin="round" stroke-opacity="0.5" stroke-width="1.5" />
        </g>
    </g>
</svg>
